<?xml version="1.0" encoding="UTF-8"?>
<svg version="1.1" xmlns="http://www.w3.org/2000/svg" width="128" height="128">
    <path d="M0,0 L22,0 L36,4 L47,10 L57,18 L66,29 L73,44 L75,53 L75,75 L71,89 L65,100 L57,110 L46,119 L31,126 L22,128 L0,128 L-14,124 L-25,118 L-35,110 L-44,99 L-51,84 L-53,75 L-53,53 L-49,39 L-43,28 L-35,18 L-24,9 L-9,2 Z " fill="#1E034C" transform="translate(53,0)"/>
    <path d="M0,0 L22,0 L36,4 L47,10 L57,18 L66,29 L73,44 L75,53 L75,75 L71,89 L65,100 L57,110 L46,119 L31,126 L22,128 L0,128 L-14,124 L-25,118 L-35,110 L-44,99 L-51,84 L-53,75 L-53,53 L-49,39 L-43,28 L-35,18 L-24,9 L-9,2 Z M1,4 L-12,8 L-25,15 L-38,28 L-46,43 L-49,54 L-49,72 L-46,84 L-39,98 L-28,110 L-18,117 L-6,122 L6,124 L19,124 L36,119 L46,113 L56,104 L64,93 L70,78 L71,71 L71,54 L67,41 L59,27 L47,15 L31,7 L20,4 Z " fill="#A2C0FA" transform="translate(53,0)"/>
    <path d="M0,0 L14,0 L21,3 L25,8 L25,14 L18,12 L7,12 L-6,16 L-24,26 L-34,30 L-48,30 L-53,24 L-55,17 L-50,18 L-41,18 L-28,13 L-8,2 Z " fill="#A2C2FB" transform="translate(79,49)"/>
    <path d="M0,0 L12,0 L12,2 L6,7 L-1,15 L-15,29 L-20,32 L-28,32 L-34,28 L-41,21 L-40,18 L-25,12 L-9,3 Z " fill="#B8CDF8" transform="translate(88,72)"/>
    <path d="M0,0 L7,0 L12,3 L20,11 L20,13 L3,18 L-8,24 L-20,30 L-26,32 L-33,32 L-27,25 L-5,3 Z " fill="#88B1F9" transform="translate(60,24)"/>
</svg>